PathFileType	4	(X/Y/Z)	/Users/visionmauri/Downloads/Videos/OAW10-top_Sports2D/OAW10-top_Sports2D_m_person00.trc
DataRate	CameraRate	NumFrames	NumMarkers	Units	OrigDataRate	OrigDataStartFrame	OrigNumFrames
25.0	25.0	9	22	m	25.0	219	1754
Frame#	Time	Hip			RHip			RKnee			RAnkle			RBigToe			RSmallToe			RHeel			LHip			LKnee			LAnkle			LBigToe			LSmallToe			LHeel			Neck			Head			Nose			RShoulder			RElbow			RWrist			LShoulder			LElbow			LWrist			
		X1	Y1	Z1	X2	Y2	Z2	X3	Y3	Z3	X4	Y4	Z4	X5	Y5	Z5	X6	Y6	Z6	X7	Y7	Z7	X8	Y8	Z8	X9	Y9	Z9	X10	Y10	Z10	X11	Y11	Z11	X12	Y12	Z12	X13	Y13	Z13	X14	Y14	Z14	X15	Y15	Z15	X16	Y16	Z16	X17	Y17	Z17	X18	Y18	Z18	X19	Y19	Z19	X20	Y20	Z20	X21	Y21	Z21	X22	Y22	Z22
219	8.764997147746719	3.237778546144406	0.6953353861026044	0.0301	3.2106597380612967	0.720048672715904	0.0301	3.0801588159613478	0.5978199008683672	0.129	2.969231812797076	0.5107189363254486	0.023	2.9215804852026332	0.46117027038048397	0.2179	2.9119943038067753	0.48367572309768414	0.1804	2.962798779657046	0.5006376808949167	-0.0119	3.26028949244428	0.6680185083583573	0.0301	3.1220334379681223	0.5512010972726535	0.129	3.0122820535742854	0.4621632647677951	0.023	2.9527631684840405	0.42580239279810717	0.2179	2.973128116758861	0.4138590592088916	0.1804	3.004462854167633	0.4600470209933644	-0.0119	3.422891592587709	0.8610824969580334	0.0008	3.4878879136089354	0.9236870988855773	0.0655	3.4299359710931725	0.8724638501590223	0.1076	3.35549583509026	0.898791867040096	-0.01275	3.2411432514413465	0.8201695110602782	0.0702	3.157418875637523	0.7485920145319669	0.1076	3.457411756147122	0.7876502506392814	-0.01275	3.370536979879925	0.6774178101570419	0.0702	3.28871676964074	0.6135012152906802	0.1076
220	8.80501996577296	3.2402452025382797	0.6946048406342326	0.0301	3.2112405936159902	0.7176042244844257	0.0301	3.082129745920272	0.5960613509254801	0.129	2.9706958656232163	0.5093123208383499	0.023	2.921760224812202	0.45784885557376015	0.2179	2.911907270220794	0.481394695130412	0.1804	2.961658035160491	0.4983919648554921	-0.0119	3.2624539515726028	0.665347833180121	0.0301	3.1236238947023134	0.5506342589328999	0.129	3.0122899687376146	0.4604660011744216	0.023	2.9531259636475498	0.4234973967187805	0.2179	2.9731349021709605	0.41123794631503724	0.1804	3.0038592707069243	0.4586493301974381	-0.0119	3.4245320066760843	0.8579170637666095	0.0008	3.4880275833524443	0.9194385588172779	0.0655	3.431317391629379	0.8689551315899654	0.1076	3.3571280716831793	0.89640375941135	-0.01275	3.2423683901348586	0.8174986671632721	0.0702	3.160069557517413	0.7460777261060284	0.1076	3.4583184114269967	0.7860149427135713	-0.01275	3.372602628494437	0.6757099808476855	0.0702	3.29210650492527	0.6110199998201714	0.1076
221	8.845042783799201	3.243080828902342	0.69456144670402	0.0301	3.2131936813033333	0.7157076732541847	0.0301	3.083418977607997	0.5946553571611625	0.129	2.9725573064220656	0.50715334632311	0.023	2.921634068572394	0.4548864405146676	0.2179	2.9123236691981083	0.47838285253454754	0.1804	2.9630869030509523	0.4961815964813779	-0.0119	3.263935489785729	0.6633806385085246	0.0301	3.1245309097922513	0.5496069150509706	0.129	3.013977875035452	0.4605644621014556	0.023	2.9536804799883023	0.4224694857573556	0.2179	2.973248546455894	0.4112430173889655	0.1804	3.0036991404690316	0.45729169262061176	-0.0119	3.427518826219373	0.858154101676383	0.0008	3.4882009902588567	0.9171398455699342	0.0655	3.4332701508952796	0.8677236001517741	0.1076	3.3577770743323345	0.8942692876097624	-0.01275	3.24307423990211	0.81487659071025	0.0702	3.1631690673002164	0.7439004407469285	0.1076	3.4593058384717756	0.7840772972176522	-0.01275	3.373220424467814	0.6728864567250199	0.0702	3.2949689299176397	0.6082902742544891	0.1076
222	8.885065601825442	3.2441973952279253	0.6942404009071895	0.0301	3.2139884603428017	0.7145560880098454	0.0301	3.084437962457132	0.5938247112036324	0.129	2.973885363982174	0.5048679112180288	0.023	2.9209020767829017	0.4520453642345238	0.2179	2.9121697981949257	0.47454517359072224	0.1804	2.9641130400393867	0.4941408497103692	-0.0119	3.26399101891886	0.6611044937387179	0.0301	3.1250579533814418	0.548903931343408	0.129	3.015265234814306	0.46217987257807747	0.023	2.9539737256184284	0.422494258632643	0.2179	2.9734539703427987	0.41222208432658813	0.1804	3.0042015227369254	0.457201390800267	-0.0119	3.430771707491202	0.8598883222894004	0.0008	3.4901274235568907	0.9163654496858353	0.0655	3.434053010682969	0.8655322091882217	0.1076	3.3584614733615625	0.893254024148227	-0.01275	3.2443612776231	0.8137183949856351	0.0702	3.165732442117628	0.7428393087141673	0.1076	3.461413125534026	0.7823153924446227	-0.01275	3.374398889329955	0.6701945735509148	0.0702	3.297451097169246	0.6058896121103091	0.1076
223	8.925088419851683	3.2437510950440704	0.6932026428923704	0.0301	3.2135538283015537	0.7143001259672654	0.0301	3.0856857996762184	0.5932034408976844	0.129	2.9738967223120114	0.5029088449024217	0.023	2.9200169116346797	0.4487891721045788	0.2179	2.910913863784005	0.4699931945030474	0.1804	2.962810039051395	0.491538118170127	-0.0119	3.263761831191705	0.6589946621352861	0.0301	3.1254957388954683	0.5484536106619383	0.129	3.013873045146155	0.46289733651744364	0.023	2.9541820156232674	0.4225244429750838	0.2179	2.9737256385102904	0.41224763885932575	0.1804	3.0044890373572115	0.4575626065963403	-0.0119	3.4318669621228035	0.8587365766663823	0.0008	3.490858936518557	0.9140658759167846	0.0655	3.4311719498254027	0.859158032422819	0.1076	3.3597271293104516	0.8929532117029486	-0.01275	3.2463231001804833	0.8141671593127078	0.0702	3.1665612381815222	0.7424302789508217	0.1076	3.463323728205949	0.7809001955447766	-0.01275	3.376639616915508	0.6683633019507053	0.0702	3.2995074290147777	0.6031184404479272	0.1076
224	8.965111237877922	3.242392144609423	0.6905096672257298	0.0301	3.2130489872402768	0.7133737624294951	0.0301	3.0854490775056234	0.5912010755708685	0.129	2.972764580274205	0.5005069138255528	0.023	2.9198705506705904	0.44567123050273105	0.2179	2.9103814563982433	0.46620626281132244	0.1804	2.961462830623543	0.4883543738734881	-0.0119	3.262975856249979	0.6575358728480073	0.0301	3.123956781907342	0.5465087511717381	0.129	3.012035557838619	0.4625615807260736	0.023	2.9545710968807817	0.422625527137336	0.2179	2.9743889286096117	0.4119909927644279	0.1804	3.0044362611068594	0.4574254769083857	-0.0119	3.430373611143582	0.8548812326854507	0.0008	3.489080540821978	0.910689488613804	0.0655	3.427493313087364	0.8536171401850517	0.1076	3.35937593562566	0.891552199395226	-0.01275	3.246126177425077	0.8140278997818382	0.0702	3.1649870362432373	0.7409335199938062	0.1076	3.463308434750181	0.7787001284170169	-0.01275	3.3779009499385295	0.6661540868353134	0.0702	3.3001748587479365	0.5999023851077292	0.1076
225	9.005134055904163	3.2398846035770914	0.6864358335059837	0.0301	3.212018546057481	0.7102557588858424	0.0301	3.083378455639485	0.5875877699790754	0.129	2.971965428016725	0.4971131530759285	0.023	2.9206059565537816	0.44294113842304705	0.2179	2.911768155769244	0.46376879712076247	0.1804	2.9619966917877107	0.48533708205597964	-0.0119	3.260750597629307	0.655670553952177	0.0301	3.120099677093136	0.5429029614885569	0.129	3.0126084595163936	0.46313822899066937	0.023	2.955055115633654	0.42268305131635453	0.2179	2.975446515192307	0.4123000596125288	0.1804	3.004943414579217	0.4575721525467777	-0.0119	3.4289138840415854	0.8521562941817543	0.0008	3.4888485704565504	0.9098926563856593	0.0655	3.4284951869278615	0.854515567338131	0.1076	3.356796799278303	0.8889936729152994	-0.01275	3.243055471828402	0.8119981135862118	0.0702	3.1623712502005756	0.7383762916030843	0.1076	3.4623405938026774	0.775226235475929	-0.01275	3.3776894522305616	0.6632709996856633	0.0702	3.30007524532415	0.5972184661387138	0.1076
226	9.045156873930404	3.2376787223924666	0.6836493151931373	0.0301	3.210289188163462	0.7066860099416001	0.0301	3.083081126004805	0.5852880783652304	0.129	2.9728939089628876	0.4938258741430326	0.023	2.922000039293529	0.4401462855447465	0.2179	2.9138805421549447	0.46124864290924344	0.1804	2.963146610136469	0.4827986664504266	-0.0119	3.2587447757508783	0.6534242921629703	0.0301	3.1172915051301446	0.5404059939430732	0.129	3.0143026253713385	0.46441698433113	0.023	2.9554245115057753	0.422299439358789	0.2179	2.976063580399288	0.41305263404984927	0.1804	3.0056841632662588	0.45820825499397017	-0.0119	3.427756478566525	0.8507493458467245	0.0008	3.4904878953642116	0.9105896169911788	0.0655	3.4307163846297484	0.8556915588780898	0.1076	3.354674786142173	0.8873733677522972	-0.01275	3.240192188163674	0.8100741178047053	0.0702	3.160940488452955	0.7369055954266487	0.1076	3.4622672567718116	0.7725939353268413	-0.01275	3.377559199387759	0.6616587014100427	0.0702	3.3015822704619415	0.5957761496324269	0.1076
227	9.085179691956645	3.237223374043514	0.6829461707894525	0.0301	3.2090249036647083	0.7053369932428407	0.0301	3.085567659825813	0.585441106533319	0.129	2.9747144309601734	0.4913149979803438	0.023	2.923654905929417	0.4374250309603376	0.2179	2.9156457025889964	0.45825016321121537	0.1804	2.9634550998635834	0.4803628736563875	-0.0119	3.2585877021483407	0.6522015338349183	0.0301	3.1173586892734857	0.5403344001795408	0.129	3.0140700147210717	0.4642834591514723	0.023	2.955453034146971	0.4219784275387624	0.2179	2.975787409338847	0.41404688675116447	0.1804	3.004828871805358	0.4578007615808623	-0.0119	3.42458336288366	0.8476213578274474	0.0008	3.488512526423029	0.9075876216492034	0.0655	3.4266850420985544	0.8493510934294414	0.1076	3.3543424578460077	0.8871901208306905	-0.01275	3.239318110587339	0.8096502238027572	0.0702	3.160786314329527	0.7366776302452399	0.1076	3.4626209611340313	0.7723351271526195	-0.01275	3.377743129553322	0.6617573474991238	0.0702	3.3036785789180616	0.5940899117465592	0.1076
